<?xml version="1.0" standalone="no"?>
<!DOCTYPE svg PUBLIC "-//W3C//DTD SVG 20010904//EN"
 "http://www.w3.org/TR/2001/REC-SVG-20010904/DTD/svg10.dtd">
<svg version="1.0" xmlns="http://www.w3.org/2000/svg"
 width="896.000000pt" height="504.000000pt" viewBox="0 0 896.000000 504.000000"
 preserveAspectRatio="xMidYMid meet">

<g transform="translate(0.000000,504.000000) scale(0.100000,-0.100000)"
fill="#000000" stroke="none">
<path d="M1 4868 c0 -95 3 -166 6 -158 9 27 10 35 9 41 0 3 4 12 11 20 7 9 10
43 7 99 -2 47 -4 94 -4 105 0 33 -10 65 -20 65 -6 0 -10 -66 -9 -172z"/>
<path d="M197 5010 c-40 -47 -55 -141 -50 -302 3 -76 3 -138 1 -138 -3 0 -27
6 -54 14 -98 28 -94 28 -94 -10 0 -19 8 -42 18 -52 10 -10 16 -24 14 -30 -2
-8 2 -10 13 -6 9 4 15 3 13 -2 -1 -5 4 -20 12 -34 9 -14 20 -34 26 -45 6 -11
26 -27 44 -36 19 -9 37 -26 42 -38 7 -19 5 -21 -20 -19 -22 2 -27 -1 -24 -17
1 -11 3 -28 4 -37 1 -10 5 -18 8 -18 10 0 9 -96 -2 -189 -8 -68 -8 -96 0 -99
6 -2 8 -17 5 -36 -7 -46 15 -63 57 -41 18 9 29 12 25 6 -3 -6 -19 -18 -36 -26
-39 -21 -37 -31 9 -39 59 -11 163 -47 184 -65 11 -9 31 -38 45 -65 26 -51 58
-85 81 -86 7 0 26 -13 43 -30 18 -16 35 -27 40 -24 5 3 9 1 9 -5 0 -11 33 -19
107 -26 69 -6 91 12 102 85 5 30 7 59 4 63 -13 21 -21 214 -14 323 7 101 12
127 30 152 12 17 35 68 51 113 16 45 35 88 42 95 15 15 103 20 175 9 51 -8 52
-7 58 21 4 16 9 36 11 45 3 9 -2 19 -11 23 -18 7 -20 32 -2 43 6 4 23 20 35
35 19 21 22 33 17 57 -4 17 -15 33 -26 36 -28 9 -25 63 6 99 14 17 28 39 31
51 6 24 52 55 81 55 19 0 62 37 120 104 17 20 40 36 51 36 11 0 25 7 32 15 14
17 50 20 50 5 0 -5 5 -10 10 -10 6 0 10 16 10 35 0 37 -8 43 -28 23 -9 -9 -12
-9 -12 0 0 9 -153 12 -659 12 l-659 0 -25 -30z m883 -430 c0 -25 -99 -140
-120 -140 -15 0 -12 8 10 41 12 15 26 43 32 61 18 53 40 77 61 67 9 -6 17 -19
17 -29z"/>
<path d="M2500 5033 c-1 -5 -3 -39 -6 -76 -9 -113 27 -247 67 -247 5 0 9 70 9
165 l0 165 -35 0 c-19 0 -35 -3 -35 -7z"/>
<path d="M2797 5011 c-8 -40 -9 -904 -1 -925 3 -9 10 -16 15 -16 5 0 9 207 9
485 0 438 -5 545 -23 456z"/>
<path d="M3089 3818 c0 -673 -2 -1257 -3 -1298 -1 -41 -3 -268 -4 -504 -2
-376 -4 -427 -17 -422 -19 7 -19 -7 1 -46 16 -31 16 -32 -17 -59 -19 -16 -46
-31 -60 -34 -60 -14 -126 -120 -136 -220 -3 -30 -9 -52 -13 -50 -5 3 -14 37
-20 76 -8 48 -16 69 -24 66 -8 -3 -26 32 -50 99 -21 57 -51 121 -67 144 -16
22 -29 46 -29 55 0 8 -20 65 -45 126 l-46 112 21 22 c20 21 20 25 7 47 -21 32
-33 183 -36 453 l-2 230 66 24 c74 26 97 51 93 104 -1 19 3 41 8 49 6 7 16 38
23 68 8 30 20 67 28 83 11 22 12 39 3 87 -11 61 -7 84 13 77 8 -2 11 -168 8
-613 -2 -534 -5 -612 -19 -636 -14 -24 -14 -28 1 -52 14 -21 17 -55 17 -213 1
-132 4 -183 11 -171 5 10 9 24 8 30 -1 7 -1 84 0 171 1 150 2 157 21 157 20 0
20 0 0 53 -20 50 -20 72 -19 660 l1 607 30 23 c71 53 98 85 98 116 0 47 -25
87 -62 100 -68 25 -63 8 -62 247 1 121 3 229 5 242 4 21 -3 26 -52 43 -43 15
-62 17 -83 10 -32 -13 -35 -40 -3 -43 12 -1 33 -2 47 -3 66 -4 60 19 60 -243
0 -267 3 -256 -73 -283 -30 -11 -41 -11 -55 -1 -51 36 -114 41 -120 9 -2 -10
12 -39 32 -64 45 -58 61 -107 49 -153 -12 -44 -37 -50 -55 -14 -15 31 -38 43
-38 21 0 -12 -4 -13 -24 -4 -17 8 -28 27 -40 69 -9 34 -22 58 -29 58 -8 0 -21
26 -32 63 -10 34 -20 65 -22 69 -2 4 -25 -5 -51 -20 -26 -15 -54 -27 -62 -27
-9 0 -19 -15 -24 -37 -11 -43 -34 -53 -76 -31 -27 13 -32 13 -54 -4 -14 -10
-26 -23 -26 -29 0 -7 -12 -15 -26 -18 -32 -8 -84 -46 -84 -61 0 -6 -6 -20 -14
-30 -13 -19 -15 -18 -55 8 -22 15 -49 27 -59 27 -11 0 -30 9 -44 19 -23 19
-24 24 -17 77 7 52 16 67 44 77 10 4 -42 57 -56 57 -5 0 -9 6 -9 14 0 21 -17
29 -46 22 -19 -5 -24 -11 -19 -26 4 -14 2 -20 -9 -20 -8 0 -18 5 -21 10 -3 6
-14 10 -24 10 -20 0 -55 33 -45 43 4 3 -3 30 -15 60 -12 29 -21 67 -19 84 3
39 -37 94 -81 110 l-32 12 6 -30 c4 -16 17 -56 30 -89 17 -44 20 -60 10 -63
-7 -3 -14 -32 -18 -73 -4 -60 -3 -70 16 -86 11 -10 28 -18 38 -18 28 0 33 -20
9 -42 -12 -11 -19 -27 -16 -35 3 -8 -1 -22 -10 -30 -21 -21 -2 -42 21 -23 14
12 18 11 26 -1 13 -21 11 -25 -17 -43 -24 -16 -25 -21 -19 -74 9 -72 26 -90
89 -96 42 -3 55 -10 86 -42 41 -44 110 -94 128 -94 7 0 22 -15 33 -34 11 -18
47 -53 82 -77 34 -24 68 -50 75 -59 12 -15 11 -81 -3 -155 -5 -27 2 -38 66
-105 79 -84 159 -195 159 -223 0 -10 -5 -27 -11 -39 -6 -11 -12 -36 -13 -56
-5 -61 -70 -178 -116 -208 -32 -22 -43 -24 -55 -14 -11 9 -12 17 -5 30 6 10
10 30 10 44 0 20 -5 26 -22 26 -35 0 -49 14 -74 71 l-22 53 24 29 c29 34 30
57 5 122 -21 56 -21 55 -21 90 0 19 -5 25 -21 25 -23 0 -29 12 -90 192 -24 70
-50 130 -57 133 -8 3 -38 -5 -66 -18 -77 -36 -172 -65 -256 -77 -48 -7 -98
-23 -140 -44 -36 -18 -83 -39 -105 -46 -22 -7 -68 -27 -102 -46 -65 -36 -100
-42 -136 -22 -38 20 -270 204 -312 247 -21 23 -42 41 -45 41 -15 0 12 -111 33
-138 24 -31 69 -189 68 -239 0 -29 4 -53 9 -53 6 0 9 -72 8 -187 -2 -175 10
-368 22 -368 1 0 3 -17 6 -37 5 -42 30 -95 36 -77 2 7 10 -14 17 -47 7 -32 17
-71 23 -85 5 -15 10 -51 11 -80 1 -45 -5 -64 -36 -117 -20 -35 -37 -67 -37
-73 0 -5 -6 -9 -14 -9 -8 0 -18 -9 -21 -21 -9 -26 -24 -46 -98 -123 -31 -33
-57 -64 -57 -68 0 -4 -7 -8 -16 -8 -21 0 -65 -35 -56 -45 4 -5 -1 -5 -10 -2
-10 4 -18 3 -18 -2 0 -5 -10 -11 -23 -15 -13 -3 -36 -17 -51 -31 -15 -13 -32
-24 -38 -22 -7 1 -12 -5 -13 -13 0 -8 -9 -16 -20 -18 -11 -2 -27 -10 -35 -17
-23 -19 -83 -48 -76 -36 4 7 1 8 -8 5 -9 -3 -16 -10 -16 -15 0 -5 -7 -9 -15
-9 -7 0 -19 -8 -24 -17 -8 -14 -11 -15 -11 -3 0 12 -3 11 -11 -2 -5 -10 -20
-18 -31 -18 -12 0 -32 -10 -45 -22 -13 -12 -23 -16 -23 -10 0 7 -4 12 -10 12
-5 0 -10 -7 -10 -15 0 -8 -7 -15 -15 -15 -13 0 -15 -45 -15 -345 l0 -345 720
0 719 0 -19 33 c-10 17 -31 63 -45 101 -24 64 -25 70 -10 93 22 32 43 39 63
20 14 -15 17 -14 32 11 9 14 25 27 36 28 10 0 33 1 50 2 19 1 45 14 65 32 19
16 39 30 45 30 6 0 21 12 33 26 18 21 29 25 52 20 17 -3 44 2 71 14 23 10 46
16 50 13 5 -2 23 6 41 19 81 61 145 58 133 -6 -5 -23 -2 -37 9 -46 9 -8 15
-29 15 -56 0 -39 -4 -46 -37 -69 -21 -14 -42 -25 -47 -25 -5 0 -36 -13 -70
-29 -103 -50 -152 -71 -165 -71 -6 0 -24 -8 -39 -18 -83 -57 -111 -72 -142
-78 -19 -4 -43 -15 -53 -25 -17 -19 -1 -19 608 -19 493 0 625 3 625 13 0 48
-51 266 -100 423 -22 72 -53 188 -69 260 -16 71 -34 142 -40 158 -16 40 -30
106 -23 106 3 0 20 -11 38 -25 27 -21 35 -36 49 -102 26 -118 63 -256 100
-378 18 -60 40 -135 49 -165 18 -64 46 -223 46 -262 l0 -28 1280 0 c1017 0
1280 3 1280 13 -1 41 -69 587 -75 606 -3 8 -8 52 -11 98 -3 47 -9 96 -15 110
-13 34 -11 65 3 61 35 -12 123 -495 144 -791 l7 -97 637 0 637 0 -42 138 c-61
194 -69 214 -125 307 -63 105 -125 296 -117 364 3 25 1 56 -4 70 -6 13 -7 31
-4 39 5 13 8 12 24 -2 23 -21 51 -11 51 19 0 63 -61 149 -113 159 -15 2 -31 7
-37 11 -16 10 -138 261 -151 308 -6 23 -27 71 -48 107 -21 36 -53 93 -71 127
-24 47 -44 70 -79 92 -45 28 -169 81 -190 81 -6 0 -64 18 -128 39 -65 22 -143
42 -173 46 -36 5 -70 18 -97 37 -23 16 -71 42 -105 58 -105 49 -102 43 -84
151 26 153 18 324 -24 479 -21 77 -22 33 -1 -62 11 -51 23 -127 26 -168 l7
-75 -20 31 c-20 31 -113 108 -160 133 -21 11 -23 11 -18 -6 36 -120 34 -167
-14 -258 -70 -133 -88 -145 -178 -123 -26 6 -85 10 -132 9 l-85 -1 -42 49
c-24 27 -43 52 -43 55 0 3 -22 26 -50 52 -60 56 -69 87 -14 54 19 -12 38 -19
42 -15 4 4 1 10 -5 12 -7 3 -13 9 -13 15 0 6 7 7 18 2 22 -10 122 -13 122 -4
0 4 12 6 28 4 36 -5 101 24 130 58 13 15 33 30 45 34 30 9 74 44 56 44 -8 1 0
7 17 14 27 12 31 18 27 41 -4 17 -10 24 -20 21 -8 -3 -11 -1 -8 4 3 6 -1 10
-9 10 -10 0 -13 -6 -10 -15 4 -8 2 -15 -4 -15 -6 0 -12 5 -14 12 -3 7 -10 8
-17 4 -23 -15 -102 -15 -107 -1 -4 11 -10 11 -30 0 -16 -8 -38 -10 -64 -5 -31
6 -40 4 -45 -9 -4 -11 -8 -12 -13 -4 -5 7 -13 9 -21 4 -7 -5 -11 -13 -8 -18 4
-6 -7 -10 -23 -9 -17 1 -30 7 -30 14 0 7 -7 15 -15 18 -8 4 -15 12 -15 19 0 7
-7 19 -16 26 -15 12 -16 11 -10 -8 4 -12 2 -24 -4 -28 -9 -6 -11 -1 -14 38 -1
12 -20 37 -29 37 -2 0 -4 -7 -4 -15 0 -8 4 -15 9 -15 4 0 8 -4 8 -10 0 -5 -11
-9 -25 -8 -17 2 -28 11 -34 30 -11 31 -26 39 -16 9 7 -23 -19 -36 -43 -21 -16
9 -16 9 1 10 9 0 17 5 17 10 0 14 -37 12 -43 -2 -4 -8 -6 -6 -7 5 -6 43 -2 69
8 63 4 -2 13 4 20 15 10 15 10 19 -1 19 -7 0 -18 -5 -25 -12 -9 -9 -12 -9 -12
0 0 6 12 15 26 18 17 4 23 11 20 21 -3 8 -6 23 -6 33 0 11 -7 17 -17 16 -10 0
-18 5 -19 12 -1 6 -2 17 -3 23 0 5 -5 8 -10 5 -5 -3 -11 1 -15 9 -3 8 0 15 7
15 9 0 8 3 -1 9 -11 7 -11 11 2 24 19 19 21 37 3 37 -7 0 -24 10 -37 23 -14
12 -32 23 -40 25 -8 2 -23 11 -32 19 -16 15 -18 15 -18 -1 0 -10 -5 -14 -11
-10 -6 3 -15 1 -19 -6 -13 -21 -40 12 -33 40 4 17 3 21 -6 16 -13 -8 -41 10
-41 26 0 6 7 4 16 -3 15 -12 16 -11 10 9 -5 14 -3 22 5 22 9 0 8 4 -1 15 -7 8
-18 15 -25 15 -7 0 -12 8 -11 18 1 11 -5 16 -16 14 -12 -2 -18 4 -18 18 0 11
-4 20 -8 20 -5 0 -10 21 -11 48 -1 33 5 61 23 97 14 28 28 62 31 78 4 18 12
27 25 27 10 0 22 5 25 10 3 6 0 10 -8 10 -10 0 -13 7 -10 20 3 11 0 20 -6 20
-6 0 -11 7 -11 15 0 8 -6 15 -13 15 -8 0 -20 26 -30 67 -16 64 -15 67 5 95 12
18 26 27 35 24 8 -3 11 -1 8 4 -3 5 -1 18 5 27 9 15 11 15 7 2 -4 -13 -1 -15
14 -12 10 3 19 11 19 18 0 6 9 20 21 31 19 17 19 19 3 31 -16 11 -16 13 -2 13
9 0 18 -6 21 -12 3 -10 10 -8 23 5 18 16 18 17 -4 17 -13 0 -20 4 -17 10 3 6
13 10 21 10 9 0 23 7 31 16 10 10 25 13 39 10 17 -5 24 -2 24 9 0 14 23 20 57
16 6 -1 14 3 18 9 3 5 14 10 24 10 10 0 32 7 48 15 20 10 61 16 114 16 93 1
149 -17 206 -65 37 -31 53 -28 46 9 -3 13 -3 32 1 40 8 21 7 25 -1 25 -5 -1
-11 14 -16 32 -4 18 -9 41 -12 51 -11 48 -99 162 -117 151 -4 -3 6 -17 22 -31
32 -26 65 -81 56 -90 -3 -3 -10 5 -15 18 -5 13 -25 41 -45 62 -21 20 -34 37
-30 37 3 0 0 7 -7 16 -9 11 -23 14 -49 10 -24 -4 -30 -3 -20 4 13 9 13 10 0
10 -9 0 -21 -5 -28 -12 -9 -9 -16 -7 -31 6 -13 12 -43 19 -96 23 -72 6 -76 5
-82 -16 -6 -24 -2 -24 -112 -21 -53 1 -81 -2 -77 -8 3 -6 -9 -20 -26 -31 -46
-30 -96 -74 -76 -68 10 4 20 2 23 -3 3 -5 -16 -11 -42 -15 -27 -3 -55 -10 -63
-16 -8 -5 -23 -12 -32 -15 -10 -4 -18 -12 -18 -19 0 -8 8 -15 18 -18 12 -3 8
-8 -18 -20 -20 -8 -44 -25 -54 -36 -19 -21 -19 -21 10 -21 28 0 26 -3 -44 -72
-39 -40 -85 -91 -100 -113 -32 -45 -78 -185 -69 -208 3 -8 -3 -51 -14 -94 -34
-139 -18 -287 44 -409 14 -27 28 -67 32 -87 9 -45 20 -54 35 -28 23 45 199 58
222 18 5 -9 16 -17 23 -17 8 0 15 -7 15 -16 0 -8 -4 -12 -10 -9 -5 3 -15 3
-20 0 -15 -9 8 -35 31 -35 20 0 63 -51 74 -90 4 -14 14 -34 21 -45 30 -42 2
-46 -53 -8 -17 13 -36 23 -41 23 -4 0 -13 15 -18 34 -6 22 -29 51 -68 85 -49
42 -66 51 -97 51 -21 0 -41 -5 -44 -11 -4 -6 -14 -8 -22 -5 -8 3 -11 1 -8 -4
3 -6 -1 -10 -9 -10 -20 0 -20 -29 -1 -54 8 -11 15 -27 15 -35 0 -14 -1 -14
-10 -1 -18 28 -11 -9 10 -50 20 -38 45 -66 34 -36 -12 30 6 16 32 -26 15 -24
46 -60 69 -80 26 -23 49 -55 60 -85 10 -26 25 -56 34 -67 21 -24 72 -51 90
-47 9 2 12 -3 7 -15 -3 -9 -11 -62 -18 -118 -9 -80 -18 -115 -44 -167 -18 -37
-41 -69 -51 -73 -29 -10 -104 -54 -141 -83 -53 -43 -112 -81 -174 -113 -31
-17 -73 -43 -91 -60 -19 -16 -38 -30 -41 -30 -4 0 -5 19 -2 43 3 23 8 763 12
1645 l6 1602 -21 0 c-21 0 -21 -1 -23 -492 -2 -271 -4 -1021 -6 -1667 -1 -645
-4 -1176 -7 -1181 -2 -4 -26 -15 -52 -25 -26 -10 -83 -42 -125 -72 -43 -30
-78 -51 -78 -46 -6 177 5 2440 15 3146 l5 337 -35 0 -35 0 -1 -1222z m946 312
c-3 -5 -15 -10 -26 -10 -11 0 -17 5 -14 10 3 6 15 10 26 10 11 0 17 -4 14 -10z
m-105 -506 c0 -8 -5 -12 -10 -9 -6 4 -8 11 -5 16 9 14 15 11 15 -7z m-2150
-320 c0 -19 -28 -30 -42 -16 -8 8 -8 15 1 26 14 17 41 10 41 -10z m918 -236
c-3 -34 -23 -46 -56 -33 -15 6 -15 9 6 25 12 10 22 23 22 29 0 6 7 11 16 11
11 0 14 -8 12 -32z m1110 -204 c27 -18 27 -25 2 -54 -11 -13 -18 -30 -16 -39
2 -9 7 -38 11 -65 l7 -48 46 6 c26 4 59 12 74 17 22 9 30 7 47 -10 12 -12 26
-21 31 -21 6 0 10 -9 10 -20 0 -22 -34 -40 -77 -40 -21 0 -24 2 -13 15 10 13
9 15 -9 15 -11 0 -21 4 -21 9 0 14 -26 20 -41 9 -12 -8 -12 -9 1 -5 14 3 40
-14 40 -27 0 -15 -34 -3 -74 27 -42 30 -72 76 -80 123 -2 11 -10 39 -16 62
-17 55 -8 76 28 67 15 -3 37 -13 50 -21z m-104 -87 c8 -21 11 -35 6 -32 -4 3
-10 -1 -12 -7 -8 -24 -29 31 -22 57 8 31 7 31 28 -18z m131 -36 c0 -27 -3 -47
-7 -44 -14 8 -8 93 6 93 1 0 1 -22 1 -49z m385 -55 c0 -3 -4 -8 -10 -11 -5 -3
-10 -1 -10 4 0 6 5 11 10 11 6 0 10 -2 10 -4z m-1726 -289 c0 -146 -4 -230
-11 -239 -8 -9 -7 -36 4 -97 12 -75 12 -86 -1 -99 -13 -14 -19 -12 -55 12 -67
47 -74 59 -72 128 1 77 16 170 30 197 6 11 11 33 11 49 0 41 49 254 62 270 29
34 33 3 32 -221z m-109 154 c9 -16 -7 -91 -22 -107 -12 -11 -18 -12 -29 -3
-11 9 -20 9 -38 0 -12 -7 -38 -11 -57 -9 -30 3 -34 6 -34 33 0 27 3 30 32 29
26 -2 34 3 43 27 9 20 20 29 43 32 18 2 37 5 44 5 6 1 14 -2 18 -7z m1679 -25
c15 -13 26 -28 26 -35 0 -25 85 -99 122 -106 24 -5 58 -25 95 -58 95 -84 217
-206 211 -212 -7 -7 -172 21 -219 37 -39 12 -71 37 -64 48 3 4 -23 37 -58 72
-96 100 -104 110 -84 102 9 -3 17 -10 17 -15 0 -5 5 -9 10 -9 6 0 3 11 -7 24
-10 13 -20 22 -22 20 -3 -3 -13 17 -23 43 -21 55 -20 53 -10 52 22 -4 22 3 -2
22 -14 11 -26 25 -26 30 0 14 7 11 34 -15z m74 -51 c-3 -3 -9 2 -12 12 -6 14
-5 15 5 6 7 -7 10 -15 7 -18z m-96 -59 c10 -18 7 -17 -15 4 -15 14 -27 29 -27
34 0 13 29 -14 42 -38z m151 14 c15 -16 23 -30 18 -30 -10 0 -61 47 -61 55 0
13 20 2 43 -25z m869 -147 c9 -21 20 -62 25 -91 9 -50 8 -54 -15 -73 -32 -25
-37 -19 -22 27 14 42 8 138 -11 160 -6 8 -7 14 -2 14 6 0 17 -17 25 -37z
m-602 -61 c0 -9 -78 64 -85 78 -3 8 14 -5 39 -30 25 -24 46 -46 46 -48z m81
-89 c13 -16 12 -17 -3 -4 -17 13 -22 21 -14 21 2 0 10 -8 17 -17z m473 -35
c-6 -9 -44 -11 -44 -2 0 4 8 13 17 20 18 13 38 0 27 -18z m-2868 -316 c6 -4
19 -22 28 -39 15 -30 15 -36 1 -69 -18 -43 -45 -43 -58 1 -5 17 -16 45 -23 63
-8 18 -12 38 -9 43 7 11 45 12 61 1z m361 -136 c77 -1 106 -5 117 -16 14 -13
10 -15 -34 -12 -27 2 -71 -1 -99 -7 -42 -9 -58 -7 -110 10 -66 22 -75 47 -12
33 20 -4 82 -8 138 -8z m-602 -16 c4 -6 11 -7 17 -4 6 4 8 -1 6 -12 -5 -28
-220 -124 -503 -225 -77 -28 -205 -81 -284 -120 -79 -38 -152 -69 -162 -69
-71 0 -129 -152 -179 -470 -17 -110 -18 -112 -48 -108 -27 3 -27 4 -28 83 -2
106 42 316 89 425 27 63 73 117 105 123 16 3 105 41 198 85 93 43 210 91 259
106 95 29 316 114 425 165 70 32 95 37 105 21z m3674 -255 c35 -9 123 -27 196
-39 163 -29 235 -60 303 -129 57 -59 162 -211 162 -235 0 -9 -34 34 -76 96
-124 184 -174 214 -419 252 -71 12 -155 27 -185 36 -90 24 -251 29 -358 10
-106 -18 -122 -19 -122 -7 0 10 159 40 235 44 75 3 192 -9 264 -28z m-3001
-64 c49 -62 121 -182 137 -228 13 -39 10 -104 -6 -135 -15 -28 -57 -34 -87
-11 -32 23 -85 108 -108 172 -10 25 -30 79 -45 119 -34 88 -36 116 -8 136 31
21 73 3 117 -53z m2482 39 c0 -5 -10 -12 -22 -15 -134 -30 -140 -30 -136 -7 2
12 16 19 48 23 74 10 110 10 110 -1z m-244 -31 c10 -17 -16 -29 -67 -29 -107
0 -544 -96 -764 -167 -112 -36 -243 -92 -291 -124 -57 -39 -138 -129 -182
-205 -38 -65 -61 -86 -40 -36 26 58 109 172 160 216 102 90 263 154 618 245
175 45 417 94 510 104 19 2 38 5 42 5 4 1 10 -3 14 -9z m-2081 -49 c10 -16
-14 -40 -41 -40 -26 0 -38 14 -30 35 6 17 62 20 71 5z m23 -82 c2 -9 -6 -22
-19 -28 -17 -10 -24 -9 -37 3 -8 9 -12 23 -8 32 8 22 60 16 64 -7z m2770 -25
c40 -30 76 -83 97 -143 36 -101 -25 -181 -128 -167 -34 5 -50 15 -87 55 -90
97 -93 220 -7 273 39 23 77 18 125 -18z m-2750 -56 c3 -14 -1 -18 -20 -15 -12
2 -24 11 -26 21 -3 14 1 18 20 15 12 -2 24 -11 26 -21z m3173 -26 c16 -17 29
-40 28 -53 0 -22 -1 -22 -12 -4 -37 58 -71 74 -91 43 -16 -25 10 -67 54 -85
l35 -14 -29 31 c-40 42 -24 53 17 13 27 -27 30 -34 17 -42 -30 -19 -67 -11
-94 21 -67 79 2 162 75 90z m-4341 4 c9 -11 10 -33 1 -97 -6 -46 -13 -101 -16
-123 -12 -102 -23 -171 -29 -186 -4 -9 -55 -38 -114 -64 -59 -26 -112 -52
-119 -57 -7 -5 -21 -7 -32 -3 -25 8 -81 91 -81 120 0 12 -10 30 -21 41 -12 10
-33 44 -47 74 -14 30 -30 58 -35 61 -27 19 55 89 104 89 15 0 32 7 39 15 7 8
19 15 26 15 7 0 28 8 46 18 18 9 69 33 113 52 44 18 89 40 100 47 26 17 50 17
65 -2z m4210 -5 c0 -5 -16 -10 -36 -10 -69 0 -96 -37 -54 -75 15 -14 31 -17
70 -13 38 4 50 2 50 -8 0 -24 -115 -19 -140 6 -56 56 -26 110 61 110 27 0 49
-4 49 -10z m-3022 -48 c3 -18 -1 -22 -21 -22 -28 0 -41 22 -24 39 17 17 42 9
45 -17z m3032 -1 c0 -5 -10 -11 -22 -15 -35 -9 -88 -7 -88 3 0 9 29 15 88 19
12 1 22 -2 22 -7z m588 -17 c3 -23 -26 -59 -48 -59 -8 0 -20 14 -27 30 -20 52
-17 57 30 53 33 -3 43 -8 45 -24z m-2010 -131 c-39 -65 -78 -131 -88 -148 -14
-26 -30 -34 -111 -58 -140 -41 -170 -47 -174 -34 -1 7 -17 59 -35 115 -17 57
-30 105 -28 106 2 0 71 18 153 39 83 21 191 51 240 66 50 16 95 30 102 30 6 1
-20 -52 -59 -116z m1502 40 c0 -16 -10 -18 -74 -18 -46 0 -72 4 -69 10 3 6 0
4 -8 -2 -18 -17 -29 -16 -29 3 0 12 13 15 75 13 42 -1 78 1 82 5 12 11 23 6
23 -11z m73 7 c27 0 20 -17 -10 -23 -34 -6 -53 1 -53 20 0 11 6 14 23 9 12 -3
30 -6 40 -6z m-3123 -220 c0 -5 -7 -15 -15 -23 -13 -13 -13 -19 0 -44 8 -16
17 -54 21 -85 6 -51 5 -57 -15 -68 -47 -25 -63 -11 -83 70 -16 67 -17 75 -2
83 10 6 13 17 9 36 -5 23 -2 28 22 37 29 11 63 7 63 -6z m2404 -153 c4 -48 1
-40 -14 38 -10 55 -19 107 -18 115 1 30 26 -93 32 -153z m597 120 c-1 -4 -1
-15 -1 -24 0 -15 -2 -16 -10 -3 -13 20 -13 43 1 38 6 -2 10 -7 10 -11z m-864
-19 c-3 -8 -6 -5 -6 6 -1 11 2 17 5 13 3 -3 4 -12 1 -19z m643 2 c0 -11 -4
-20 -10 -20 -5 0 -10 2 -10 4 0 2 -3 11 -6 20 -4 11 -1 16 10 16 9 0 16 -8 16
-20z m58 -4 c-4 -21 0 -24 33 -29 20 -3 66 -3 102 0 l64 5 6 -38 c13 -78 11
-82 -35 -82 -94 -1 -108 -2 -108 -12 0 -5 7 -10 15 -10 9 0 15 -9 15 -21 0
-18 -2 -19 -15 -9 -12 10 -15 10 -15 -1 -1 -10 -4 -8 -11 4 -5 9 -7 22 -4 27
4 6 -20 10 -64 10 l-70 0 -6 33 c-13 72 -11 92 9 89 10 -2 29 -1 43 2 19 5 22
10 14 25 -11 20 -5 31 17 31 10 0 13 -8 10 -24z m62 5 c0 -24 -34 -22 -38 2
-2 12 3 17 17 17 14 0 21 -6 21 -19z m60 6 c0 -19 -10 -27 -26 -20 -21 8 -17
33 6 33 11 0 20 -6 20 -13z m-1087 -132 c1 -5 -13 -11 -30 -13 -41 -4 -44 -22
-4 -22 32 0 47 -30 31 -61 -12 -21 -90 -32 -90 -12 0 7 11 13 25 13 14 0 25 5
25 10 0 6 -11 10 -24 10 -25 0 -41 34 -30 64 8 22 93 32 97 11z m-115 -67 l3
-56 -52 -16 c-29 -8 -56 -13 -61 -10 -13 8 -9 60 5 72 6 5 21 11 31 13 11 2
21 9 23 16 3 9 -4 10 -29 2 -40 -11 -38 -11 -38 0 0 11 78 40 100 38 11 -2 16
-18 18 -59z m-168 32 c0 -5 7 -10 15 -10 8 0 15 -4 15 -10 0 -5 -4 -10 -10
-10 -5 0 -10 -18 -10 -40 0 -29 4 -40 15 -40 27 0 16 -18 -16 -25 -22 -5 -34
-3 -40 6 -13 21 -11 113 3 127 15 15 28 16 28 2z m1442 -13 c12 -18 10 -27 -7
-27 -8 0 -15 8 -16 18 0 12 -3 10 -11 -8 -9 -23 -11 -24 -17 -6 -7 18 -8 18
-14 2 -8 -21 -27 -12 -27 12 0 14 10 18 42 19 24 1 46 -3 50 -10z m-214 -20
c2 -10 -3 -17 -11 -17 -16 0 -30 24 -19 34 10 10 27 1 30 -17z m19 -9 c-3 -7
-5 -2 -5 12 0 14 2 19 5 13 2 -7 2 -19 0 -25z m37 16 c4 -9 4 -19 2 -21 -8 -8
-26 8 -26 23 0 19 16 18 24 -2z m-2834 -13 c0 -26 -54 -48 -75 -31 -13 10 -12
15 8 31 30 25 67 25 67 0z m2377 -13 c-3 -7 -5 -2 -5 12 0 14 2 19 5 13 2 -7
2 -19 0 -25z m-887 7 c0 -8 -9 -15 -19 -15 -26 0 -51 -10 -51 -21 0 -5 14 -6
31 -2 41 8 64 -28 41 -63 -10 -17 -115 -47 -110 -32 3 7 19 16 36 20 42 11 41
30 0 26 -31 -3 -33 -1 -36 34 -3 36 -2 37 40 48 24 6 48 13 53 15 6 2 11 4 13
4 1 1 2 -6 2 -14z m-276 -128 c-19 -74 -27 -87 -55 -87 -17 0 -73 116 -63 131
14 23 40 6 60 -39 l21 -47 18 60 c21 70 27 84 33 66 2 -7 -4 -45 -14 -84z
m144 52 c3 -33 1 -36 -35 -45 -21 -5 -36 -13 -34 -19 1 -5 6 -9 10 -8 50 13
61 14 61 6 0 -13 -103 -44 -113 -34 -4 4 -7 32 -5 61 3 51 5 54 38 66 57 21
75 15 78 -27z"/>
<path d="M3680 2771 c0 -6 4 -13 10 -16 6 -3 7 1 4 9 -7 18 -14 21 -14 7z"/>
<path d="M2583 1204 c9 -17 23 -37 33 -45 16 -13 16 -12 1 17 -9 17 -23 37
-33 45 -16 13 -16 12 -1 -17z"/>
<path d="M2600 1064 c0 -23 39 -74 56 -74 23 0 17 56 -8 74 -29 20 -48 20 -48
0z"/>
<path d="M5400 1142 c-30 -26 -34 -35 -34 -78 0 -27 7 -62 15 -77 l15 -29 32
36 c29 33 30 39 25 93 -8 85 -14 91 -53 55z"/>
<path d="M5475 1139 c17 -78 33 -104 79 -138 26 -18 50 -31 53 -27 21 20 -68
160 -120 187 -17 10 -18 8 -12 -22z"/>
<path d="M5445 963 l-39 -26 33 -28 c18 -15 45 -30 59 -34 32 -8 77 10 96 40
15 22 14 23 -45 49 -33 14 -61 26 -62 26 -1 0 -20 -12 -42 -27z"/>
<path d="M4553 453 c-15 -6 -17 -43 -3 -43 12 0 24 25 18 38 -1 5 -9 7 -15 5z"/>
<path d="M4184 375 c-11 -27 1 -39 19 -21 17 17 15 36 -4 36 -5 0 -12 -7 -15
-15z"/>
<path d="M3649 5038 c-7 -15 -7 -1204 0 -1216 17 -30 20 42 26 636 6 525 5
582 -9 582 -9 0 -17 -1 -17 -2z"/>
<path d="M4050 4629 c0 -271 3 -408 10 -404 6 4 10 152 10 411 0 263 -3 404
-10 404 -7 0 -10 -144 -10 -411z"/>
<path d="M1546 4925 c-9 -26 -7 -32 5 -12 6 10 9 21 6 23 -2 3 -7 -2 -11 -11z"/>
<path d="M2387 4545 c-21 -14 -42 -23 -46 -20 -11 6 -41 -4 -41 -14 0 -3 20
-14 45 -25 25 -10 54 -29 65 -43 17 -22 24 -24 67 -18 26 3 56 8 67 11 16 5
17 2 11 -35 -9 -55 0 -65 35 -39 32 23 54 75 44 101 -7 20 -18 21 -45 6 -19
-10 -20 -8 -14 24 6 30 3 38 -18 52 -14 9 -49 18 -79 21 -45 3 -59 0 -91 -21z"/>
<path d="M2193 4373 c-48 -9 -20 -43 36 -43 14 0 36 -7 48 -15 19 -13 25 -12
64 9 24 12 45 30 47 39 3 15 -7 17 -85 16 -48 -1 -98 -4 -110 -6z"/>
<path d="M1332 4348 c-20 -20 -14 -35 17 -46 23 -8 31 -19 36 -46 7 -37 28
-62 43 -52 13 8 3 53 -14 67 -8 6 -14 27 -14 45 0 23 -5 34 -14 34 -8 0 -20 2
-28 5 -7 3 -19 0 -26 -7z"/>
<path d="M1080 4235 c0 -20 39 -40 53 -26 7 7 6 15 -3 26 -16 19 -50 20 -50 0z"/>
<path d="M1500 4179 c0 -7 -8 -18 -17 -25 -17 -13 -16 -16 16 -44 19 -16 38
-27 43 -24 4 3 8 23 8 44 0 29 -5 42 -19 50 -25 13 -31 13 -31 -1z"/>
<path d="M1126 3978 c-22 -32 -20 -55 8 -73 21 -14 31 -14 77 -3 29 7 54 19
57 25 2 7 -10 26 -26 43 -38 38 -93 42 -116 8z"/>
<path d="M1280 3872 c0 -11 22 -32 32 -32 5 0 4 9 -2 20 -11 20 -30 28 -30 12z"/>
<path d="M4160 3859 c0 -5 5 -7 10 -4 6 3 10 8 10 11 0 2 -4 4 -10 4 -5 0 -10
-5 -10 -11z"/>
<path d="M951 3853 c2 -23 27 -74 49 -99 46 -55 181 -144 217 -144 28 0 10 21
-89 103 -57 47 -116 99 -132 116 -29 30 -47 39 -45 24z"/>
<path d="M4710 3853 c0 -5 14 -21 30 -36 15 -16 45 -60 65 -98 38 -73 55 -92
55 -61 0 32 -46 127 -80 166 -28 32 -70 49 -70 29z"/>
<path d="M2592 3739 c-7 -10 -12 -25 -12 -32 0 -27 -59 -97 -82 -97 -13 0 -37
-17 -59 -41 -29 -33 -38 -52 -47 -106 -6 -37 -9 -70 -6 -74 9 -16 30 2 43 37
17 46 43 61 119 70 50 5 67 12 82 32 36 45 26 52 -42 31 -82 -24 -92 -24 -78
0 25 48 79 68 108 39 8 -8 15 -8 27 2 14 12 18 11 25 0 7 -12 12 -11 29 4 22
20 20 59 -6 84 -7 7 -13 20 -13 27 0 16 -11 24 -49 35 -22 6 -30 4 -39 -11z"/>
<path d="M4706 3622 c-9 -2 -16 -8 -16 -13 0 -5 -3 -8 -7 -6 -5 1 -9 -2 -11
-8 -2 -5 5 -12 15 -14 10 -2 23 -11 30 -20 9 -13 15 -14 31 -4 31 19 85 25
116 13 39 -15 43 -6 12 24 -22 19 -40 25 -90 28 -35 2 -71 2 -80 0z"/>
<path d="M4359 3533 c-29 -15 -55 -30 -57 -35 -2 -4 -10 -8 -18 -8 -7 0 -19
-9 -26 -19 -10 -16 -15 -18 -27 -8 -10 8 -13 8 -8 1 4 -7 -1 -18 -10 -25 -14
-12 -16 -12 -8 1 5 9 0 8 -13 -4 -12 -11 -20 -21 -17 -24 3 -3 -4 -12 -16 -20
-21 -14 -44 -59 -40 -77 1 -5 -3 -5 -10 2 -6 6 -11 32 -11 57 1 36 -2 44 -13
39 -17 -6 -17 -6 -21 -48 -3 -41 -21 -85 -34 -85 -7 0 -5 -9 4 -22 9 -12 16
-30 16 -40 0 -24 31 -23 37 1 2 10 16 24 29 31 13 8 24 20 24 27 0 10 5 11 19
3 17 -9 19 -7 16 10 -2 11 3 27 11 35 9 9 11 15 4 15 -6 0 -2 10 10 22 11 12
20 25 20 30 0 9 46 33 83 42 17 4 27 2 27 -4 0 -6 -4 -9 -9 -6 -10 6 -98 -81
-118 -116 -17 -31 -18 -97 -1 -80 7 7 21 12 31 12 14 0 17 5 13 17 -4 9 -1 20
6 25 10 6 10 10 1 16 -8 5 -8 13 2 31 l13 24 13 -24 c7 -13 12 -27 11 -31 -2
-7 77 2 98 12 18 9 42 2 35 -10 -3 -4 4 -6 15 -3 14 4 20 0 20 -11 0 -10 -4
-15 -9 -12 -5 4 -7 -3 -4 -14 5 -19 7 -19 23 -5 10 9 24 13 34 9 9 -4 16 -3
15 2 -4 22 2 35 14 31 19 -7 47 12 47 31 0 15 -2 15 -11 2 -9 -13 -10 -13 -6
0 2 11 15 14 43 12 49 -4 58 -14 49 -49 -5 -15 -7 -32 -6 -36 1 -5 -2 -6 -7
-3 -4 2 -14 -16 -21 -42 -8 -26 -18 -53 -24 -60 -15 -18 64 -92 98 -92 29 0
31 -10 10 -50 -11 -22 -20 -27 -37 -23 -22 5 -22 5 -5 -13 12 -13 20 -15 25
-8 4 7 16 13 27 16 15 2 20 11 20 33 0 26 4 30 32 33 32 3 53 30 32 43 -8 5
-5 11 10 18 11 7 21 18 21 25 0 7 9 21 20 31 20 18 28 41 10 30 -5 -3 -12 5
-16 19 -8 34 -44 50 -76 34 -12 -6 -18 -5 -18 2 0 6 6 13 13 16 8 3 14 10 15
17 1 7 4 24 8 39 5 22 -1 34 -39 74 -35 36 -49 45 -64 39 -16 -7 -16 -8 -1
-12 9 -2 15 -10 12 -18 -3 -7 3 -16 15 -20 12 -4 18 -12 14 -21 -4 -11 -12 -8
-34 17 -29 32 -67 35 -55 4 3 -8 3 -15 0 -15 -2 0 -9 12 -14 26 -9 23 -12 24
-27 13 -14 -12 -15 -11 -9 11 6 21 5 22 -4 7 -6 -10 -10 -28 -8 -40 2 -14 -7
-32 -26 -49 -33 -32 -41 -33 -76 -13 -20 11 -21 14 -7 15 10 0 16 4 13 9 -3 5
4 11 15 14 17 5 20 12 17 31 -3 14 -2 24 1 23 12 -4 11 14 -3 48 -8 19 -20 35
-25 35 -6 0 -11 14 -11 30 0 26 -4 30 -28 30 -15 0 -53 -12 -83 -27z m31 -189
c0 -8 -4 -12 -10 -9 -5 3 -10 13 -10 21 0 8 5 12 10 9 6 -3 10 -13 10 -21z
m328 -184 c-26 -35 -17 -53 20 -40 25 10 26 9 8 -5 -40 -31 -66 -14 -66 42 0
31 29 56 47 41 9 -7 7 -16 -9 -38z m67 -90 c3 -5 1 -10 -4 -10 -6 0 -11 5 -11
10 0 6 2 10 4 10 3 0 8 -4 11 -10z"/>
<path d="M7354 3542 c-13 -7 -24 -16 -24 -21 0 -4 -16 -16 -35 -27 -37 -19
-81 -70 -102 -114 -41 -89 -43 -162 -8 -296 32 -124 32 -185 -1 -259 -32 -74
-29 -107 11 -116 17 -3 62 -22 100 -41 66 -34 291 -109 369 -123 28 -6 45 -2
81 19 43 26 45 29 45 74 0 26 5 65 11 87 8 30 8 52 -1 92 -10 42 -10 58 0 83
10 25 10 42 0 93 -16 75 -26 97 -45 97 -8 0 -15 7 -15 16 0 10 6 14 15 10 27
-10 16 11 -25 48 -27 24 -50 36 -69 36 -28 0 -61 -22 -61 -40 0 -13 42 -40 61
-40 9 0 24 -9 34 -20 10 -11 24 -20 32 -20 17 0 16 -48 -2 -80 -8 -14 -14 -42
-15 -62 0 -20 -3 -43 -6 -52 -7 -17 -34 -22 -34 -7 0 5 -12 12 -27 16 -40 9
-144 86 -164 120 -24 41 -24 117 1 164 11 22 23 41 28 43 4 1 15 26 24 53 25
81 93 113 176 84 26 -9 35 -8 48 5 40 40 -20 115 -121 153 -85 32 -242 46
-281 25z m-18 -424 c6 -13 9 -56 8 -96 0 -40 3 -75 7 -78 10 -6 0 -34 -12 -34
-5 0 -9 6 -9 14 0 8 -6 16 -13 19 -8 3 -26 30 -41 61 -30 61 -28 89 8 118 28
23 41 22 52 -4z m104 -355 c0 -38 -53 10 -56 50 -1 15 4 13 27 -9 16 -15 29
-34 29 -41z"/>
<path d="M4767 3528 c-20 -6 -42 -19 -48 -30 -9 -18 -8 -18 10 -9 17 10 20 9
15 -4 -4 -11 -2 -13 9 -10 22 9 32 -27 11 -42 -21 -15 -14 -17 18 -3 13 5 42
14 66 20 35 9 42 15 42 35 0 27 -34 56 -65 54 -11 -1 -37 -6 -58 -11z m103
-54 c0 -9 -11 -14 -27 -14 -25 0 -26 1 -8 13 12 9 15 19 10 28 -8 12 -6 12 8
0 9 -7 17 -20 17 -27z"/>
<path d="M4532 3467 c-14 -16 -6 -27 20 -27 13 0 18 6 16 17 -4 22 -22 27 -36
10z"/>
<path d="M2083 3299 c-9 -9 -8 -15 3 -27 17 -16 19 -15 28 16 8 24 -11 31 -31
11z"/>
<path d="M4881 3182 c-14 -26 -7 -42 10 -25 6 6 9 19 7 29 -3 17 -5 17 -17 -4z"/>
<path d="M4830 3049 c0 -23 5 -39 14 -42 17 -7 15 28 -2 59 -10 17 -11 15 -12
-17z"/>
<path d="M4636 2962 c-3 -5 1 -9 9 -9 8 0 12 4 9 9 -3 4 -7 8 -9 8 -2 0 -6 -4
-9 -8z"/>
<path d="M4810 2935 c-14 -7 -47 -24 -73 -36 -26 -13 -66 -40 -89 -60 -42 -39
-45 -65 -5 -49 12 4 45 14 72 21 56 13 185 77 185 90 0 5 26 9 58 10 55 1 56
1 28 14 -18 7 -40 10 -55 5 -14 -4 -32 -5 -40 -2 -8 3 -11 0 -7 -7 4 -6 2 -11
-3 -11 -6 0 -11 9 -11 20 0 24 -24 26 -60 5z"/>
<path d="M5132 2918 c2 -7 37 -30 77 -50 40 -21 67 -40 60 -42 -55 -17 -69
-16 -94 10 -24 24 -31 26 -78 19 -29 -4 -83 -9 -122 -10 -84 -4 -121 -17 -130
-44 -3 -12 -15 -21 -26 -21 -10 0 -19 -3 -19 -8 0 -12 76 -8 93 6 12 10 17 7
31 -23 9 -19 21 -35 27 -35 6 0 8 -4 5 -8 -7 -11 15 -15 99 -15 87 0 133 20
142 64 4 21 13 31 32 35 53 12 75 21 79 32 2 6 -38 32 -88 57 -51 26 -90 40
-88 33z"/>
<path d="M4239 2874 c-12 -15 -12 -16 0 -9 11 6 13 4 8 -8 -5 -12 -1 -17 13
-17 23 0 25 9 7 34 -13 17 -14 17 -28 0z"/>
<path d="M639 2814 c-12 -25 -19 -47 -17 -49 4 -4 222 -115 225 -115 2 0 3 6
3 14 0 33 -151 196 -182 196 -5 0 -18 -21 -29 -46z"/>
<path d="M4521 2834 c0 -11 3 -14 6 -6 3 7 2 16 -1 19 -3 4 -6 -2 -5 -13z"/>
<path d="M4462 2680 c0 -14 2 -19 5 -12 2 6 2 18 0 25 -3 6 -5 1 -5 -13z"/>
<path d="M4305 2680 c-3 -5 1 -10 10 -10 9 0 13 5 10 10 -3 6 -8 10 -10 10 -2
0 -7 -4 -10 -10z"/>
<path d="M4340 2614 c0 -8 5 -12 10 -9 6 3 10 10 10 16 0 5 -4 9 -10 9 -5 0
-10 -7 -10 -16z"/>
<path d="M4955 2620 c3 -5 8 -10 11 -10 2 0 4 5 4 10 0 6 -5 10 -11 10 -5 0
-7 -4 -4 -10z"/>
<path d="M4507 2613 c-3 -5 8 -16 24 -25 16 -9 31 -13 34 -8 4 7 -17 20 -31
19 -4 0 -10 5 -14 11 -4 7 -10 8 -13 3z"/>
<path d="M6943 2521 c-78 -50 -210 -176 -232 -220 -62 -122 -44 -351 41 -553
22 -51 23 -63 15 -140 -4 -45 -6 -110 -3 -143 8 -104 -14 -414 -39 -549 -15
-76 -13 -116 4 -116 5 0 20 -17 34 -37 23 -34 27 -51 32 -158 6 -135 22 -295
30 -317 4 -9 28 -29 55 -47 26 -17 51 -39 55 -49 4 -9 9 -56 12 -104 l6 -88
122 0 122 0 -3 25 c-1 14 4 32 12 40 8 8 13 18 12 22 -2 4 8 10 22 11 39 6 46
20 17 33 -15 7 -27 17 -28 23 -1 11 -2 19 -14 84 -8 45 -1 51 46 39 34 -8 44
-17 59 -51 14 -31 19 -36 19 -18 1 12 6 22 11 22 6 0 10 9 10 20 0 11 5 20 11
20 6 0 9 7 5 15 -4 10 6 20 32 31 33 14 40 14 69 0 49 -23 60 -50 68 -166 10
-160 4 -150 91 -150 56 0 74 3 74 14 0 7 19 26 43 42 65 43 87 66 87 88 0 28
64 122 93 137 12 7 25 17 29 23 18 28 15 -8 -8 -79 -20 -65 -54 -202 -54 -221
0 -2 15 -4 33 -4 19 0 54 14 87 35 70 45 83 45 78 0 l-4 -35 433 0 433 0 0
484 0 485 -52 5 c-78 9 -205 15 -400 21 -168 5 -272 20 -247 35 8 6 5 14 -10
29 -11 11 -21 29 -22 39 0 9 -4 100 -8 202 -7 170 -10 192 -38 270 -17 47 -40
128 -52 180 -31 132 -31 134 -43 122 -15 -15 -44 -175 -47 -253 -3 -113 -31
-282 -50 -309 -28 -38 -61 -37 -116 6 -67 50 -132 88 -180 102 -49 14 -145 96
-145 123 0 11 -8 22 -17 25 -60 19 -72 28 -86 62 -36 89 -46 119 -50 157 -2
22 -14 61 -24 85 -11 25 -26 63 -33 85 -7 22 -30 74 -51 115 -51 102 -89 190
-89 205 0 7 -14 52 -31 99 -35 94 -82 155 -137 174 -28 10 -37 7 -89 -27z
m130 -411 c19 -34 19 -35 -2 -48 -12 -8 -21 -20 -21 -26 0 -6 -9 -20 -21 -30
-27 -23 -63 -14 -85 20 -16 23 -16 28 -1 59 11 23 21 33 31 29 9 -3 20 3 28
15 18 30 48 22 71 -19z m12 -852 c33 -23 118 -98 188 -167 71 -69 129 -126
130 -127 1 -1 14 -4 30 -8 22 -5 27 -3 27 13 0 46 79 54 161 17 60 -27 94 -58
104 -96 5 -20 -1 -35 -24 -64 -17 -21 -31 -40 -31 -42 0 -14 52 0 71 20 32 32
93 56 139 56 30 0 43 -6 59 -27 32 -40 34 -61 22 -226 -12 -158 -25 -230 -45
-246 -12 -10 -373 3 -506 19 -47 5 -155 24 -240 41 l-155 32 -46 47 c-34 35
-55 69 -79 131 -43 112 -49 199 -20 294 12 39 26 95 31 125 17 94 57 200 84
226 14 13 29 24 33 24 3 0 33 -19 67 -42z m1155 -228 c0 -5 -4 -10 -10 -10 -5
0 -10 5 -10 10 0 6 5 10 10 10 6 0 10 -4 10 -10z m-229 -832 c6 -24 20 -53 30
-64 20 -21 20 -21 -5 -50 -26 -32 -92 -71 -102 -61 -11 10 16 126 39 173 11
24 22 44 24 44 1 0 7 -19 14 -42z m-886 22 c3 -5 -1 -10 -9 -10 -9 0 -16 5
-16 10 0 6 4 10 9 10 6 0 13 -4 16 -10z m1 -45 c-3 -8 -1 -15 4 -15 6 0 10 -9
10 -21 0 -11 -5 -17 -10 -14 -6 4 -8 10 -5 15 3 4 -2 11 -11 14 -12 5 -13 8
-2 20 17 20 22 20 14 1z"/>
<path d="M6983 2025 c-9 -25 2 -27 22 -5 17 18 17 20 1 20 -9 0 -19 -7 -23
-15z"/>
<path d="M4963 2531 c-33 -27 -2 -36 38 -12 24 15 27 20 14 25 -23 9 -27 8
-52 -13z"/>
<path d="M3648 2345 c-6 -30 -3 -43 8 -33 3 4 4 19 2 35 l-3 28 -7 -30z"/>
<path d="M3640 2113 c0 -113 4 -173 10 -173 13 0 12 310 -1 331 -5 9 -9 -52
-9 -158z"/>
<path d="M4645 2160 c3 -5 1 -10 -6 -10 -7 0 -10 -2 -7 -5 8 -9 38 6 32 16 -3
5 -10 9 -15 9 -6 0 -7 -4 -4 -10z"/>
<path d="M2695 1870 c3 -5 11 -10 16 -10 6 0 7 5 4 10 -3 6 -11 10 -16 10 -6
0 -7 -4 -4 -10z"/>
<path d="M2870 1767 c0 -2 24 -23 53 -47 29 -25 41 -32 27 -16 -25 28 -80 71
-80 63z"/>
<path d="M2990 1656 c0 -2 8 -10 18 -17 15 -13 16 -12 3 4 -13 16 -21 21 -21
13z"/>
<path d="M7315 170 c-3 -5 -1 -10 4 -10 6 0 11 5 11 10 0 6 -2 10 -4 10 -3 0
-8 -4 -11 -10z"/>
</g>
</svg>
