<?xml version="1.0" encoding="UTF-8"?>
<svg width="170px" height="170px" viewBox="0 0 170 170" version="1.1" xmlns="http://www.w3.org/2000/svg" xmlns:xlink="http://www.w3.org/1999/xlink">
    <title>watch-our-video-rotating text</title>
    <defs>
        <polygon id="path-1" points="0.119440415 0.307954768 7.37536967 0.307954768 7.37536967 11.3176286 0.119440415 11.3176286"></polygon>
    </defs>
    <g id="Page-1" stroke="none" stroke-width="1" fill="none" fill-rule="evenodd">
        <g id="Home" transform="translate(-298.000000, -1771.000000)">
            <g id="watch-our-video-rotating-text" transform="translate(298.000000, 1771.000000)">
                <polygon id="Fill-1" fill="#FFFFFF" points="106.102902 1.58899506 106.147824 1.45666586 107.284093 1.83101819 106.563135 9.87611098 106.616425 9.89352271 111.189249 3.11687492 112.392461 3.51342722 111.96614 11.6551551 112.01943 11.6730022 116.310829 4.80363688 117.460751 5.18234215 117.416269 5.31467135 112.015466 13.6683872 110.838238 13.280976 111.202902 5.1919186 111.149171 5.17450687 106.492228 11.8497313 105.328653 11.4666731"></polygon>
                <g id="Group-113" transform="translate(0.000000, 0.171941)">
                    <path d="M120.227127,14.1627499 L120.49622,13.6107978 L118.896635,12.8490344 C117.843163,12.3475764 117.101505,12.4890467 116.73464,13.241669 C116.422826,13.8815503 116.621894,14.5640904 117.561298,15.0111367 C118.665858,15.5369712 119.774821,15.0912307 120.227127,14.1627499 M115.649459,12.7406463 C116.175754,11.661554 117.402308,11.1017666 119.306661,12.0084828 L120.905806,12.7702463 L121.107956,12.3562822 C121.456324,11.6410952 121.311868,10.814473 120.257956,10.313015 C119.30578,9.85943924 118.579977,10.1628387 118.267282,10.7713789 L117.238915,10.2821091 C117.838319,9.05240526 119.276712,8.7324646 120.69837,9.40934585 C122.361376,10.2011446 122.754225,11.6093187 122.160987,12.8263991 L120.057567,17.1427686 L119.156039,16.7135693 L119.520262,15.7737708 L119.469174,15.7498296 C118.757904,16.214723 117.856816,16.2343112 116.942956,15.7990178 C115.53407,15.1277954 115.105547,13.8571739 115.649459,12.7406463" id="Fill-2" fill="#FFFFFF"></path>
                    <path d="M123.448979,16.8606114 L125.621544,13.2280879 L124.590534,12.6256418 L125.099653,11.7742079 L126.154886,12.3910186 L127.13701,10.7482213 L128.132347,11.3297733 L127.149782,12.9721353 L128.665689,13.8579574 L128.15657,14.7093913 L126.640663,13.823134 L124.517865,17.3720811 C124.166855,17.9592919 124.270793,18.3601972 124.829238,18.6862319 L125.556803,19.1110783 L125.026104,19.9982063 L124.103876,19.4597483 C122.879083,18.7441259 122.839446,17.8796332 123.448979,16.8606114" id="Fill-4" fill="#FFFFFF"></path>
                    <path d="M128.160622,17.7237547 C129.458523,15.9177223 131.232513,15.3514056 132.978756,16.5780624 C134.553679,17.6837077 134.65013,19.1362818 133.889534,20.3625033 L132.924145,19.6847515 C133.422254,18.8720587 133.21658,18.0271542 132.36658,17.4299316 C131.160285,16.5824154 129.994508,17.2170731 129.137461,18.4097771 C128.263679,19.6251163 128.057565,20.8983495 129.26386,21.7458658 C130.137202,22.3591942 130.972668,22.2795355 131.608187,21.5634778 L132.573575,22.2412297 C131.576917,23.3873572 130.199301,23.6676862 128.671062,22.5942526 C126.912927,21.3597605 126.846425,19.5524223 128.160622,17.7237547" id="Fill-6" fill="#FFFFFF"></path>
                    <path d="M139.469057,17.5703137 L140.359135,18.3425242 L137.48499,21.5771896 L137.527269,21.6141895 C138.297114,21.3177547 139.170456,21.3900134 140.007244,22.1160828 C141.20385,23.1551282 141.263746,24.5236907 140.175482,25.748171 L137.087736,29.2235536 L136.198098,28.4513431 L139.165171,25.1122073 C139.909031,24.2747028 139.923565,23.4345865 139.066078,22.6902348 C138.18701,21.9271655 137.038409,22.0795182 136.080508,23.1577399 L133.476337,26.0885705 L132.586699,25.3167952 L139.469057,17.5703137 Z" id="Fill-8" fill="#FFFFFF"></path>
                    <path d="M147.327241,35.1473745 C148.522085,34.1714467 149.013588,33.0105192 148.079909,31.8944269 C147.146231,30.7778993 145.889288,31.04604 144.705894,32.013262 C143.51149,32.9891898 143.039365,34.1518585 143.963795,35.2575038 C144.897915,36.3735961 146.132837,36.1237376 147.327241,35.1473745 M143.942215,31.100887 C145.538718,29.7963127 147.476101,29.5329601 148.894676,31.2288633 C150.312811,32.9247664 149.686541,34.7556105 148.090479,36.0597495 C146.504987,37.3551827 144.585661,37.6402999 143.149469,35.9230674 C141.712837,34.2053996 142.346153,32.4054614 143.942215,31.100887" id="Fill-10" fill="#FFFFFF"></path>
                    <path d="M148.422288,38.2722589 L152.305863,35.7175218 L152.96208,36.6917085 L149.230889,39.1458927 C148.291925,39.7635741 148.041329,40.5475375 148.673324,41.4869007 C149.337469,42.472405 150.431459,42.5894989 151.640396,41.7946531 L154.937339,39.6255861 L155.593557,40.5997727 L149.597754,44.5439663 L149.027858,43.6973206 L149.92322,42.9908394 L149.892391,42.944263 C149.071018,43.0326276 148.230707,42.7152987 147.613687,41.7990061 C146.731536,40.4887729 147.049516,39.1750574 148.422288,38.2722589" id="Fill-12" fill="#FFFFFF"></path>
                    <path d="M157.04001,43.0923498 L157.532394,43.9851366 L156.515917,44.6441708 L156.542782,44.6929237 C157.389699,44.5697357 158.167031,44.9601938 158.592031,45.7302279 L158.902523,46.2930623 L157.90014,46.8328261 L157.630606,46.3439916 C156.97571,45.1578171 155.838119,45.0729348 154.353041,45.8734394 L151.285114,47.5271191 L150.718301,46.5002619 L157.04001,43.0923498 Z" id="Fill-14" fill="#FFFFFF"></path>
                    <polygon id="Fill-16" fill="#FFFFFF" points="161.204614 51.6048171 161.336738 51.555629 161.767904 52.6900036 157.09863 56.7617382 157.118448 56.8139734 163.315521 56.7578205 163.746687 57.8921951 163.615003 57.9413833 156.023578 57.8155835 155.592852 56.6812089"></polygon>
                    <path d="M167.018614,58.9061676 L167.394728,60.1619891 L166.070842,60.5494002 L165.693847,59.294014 L167.018614,58.9061676 Z M164.281438,59.7806721 L164.617915,60.9024232 L157.712215,62.9252317 L157.375738,61.8034805 L164.281438,59.7806721 Z" id="Fill-18" fill="#FFFFFF"></path>
                    <path d="M162.882813,68.9514771 C164.274523,68.6576541 165.357943,67.8023025 165.05758,66.4124107 C164.745767,64.9689777 163.428927,64.6773312 162.023124,64.973766 C160.603228,65.2732478 159.52201,66.0715759 159.833824,67.5150089 C160.134187,68.905336 161.47657,69.2483472 162.882813,68.9514771 M161.772528,63.8158855 C163.85701,63.3901685 165.626155,64.0422381 166.049834,66.0041055 C166.274005,67.0387979 165.941492,67.8358201 165.401104,68.3346664 L165.412554,68.3890781 L169.547606,67.5158795 L169.794679,68.6602658 L159.595119,70.813227 L159.380637,69.8190169 L160.326648,69.4625116 L160.315197,69.4080999 C159.614938,69.1713003 158.982943,68.5779954 158.759212,67.5428677 C158.364601,65.7172471 159.501311,64.3090729 161.772528,63.8158855" id="Fill-20" fill="#FFFFFF"></path>
                    <path d="M164.620425,77.0575545 C165.754933,76.9378488 166.587756,76.2474735 166.450788,74.9872991 C166.307212,73.6574777 165.331694,73.1586315 164.206876,73.2356784 L164.620425,77.0575545 Z M163.442756,72.0695274 C165.516228,71.8501395 167.265114,72.6880793 167.502057,74.875864 C167.71786,76.8703784 166.334078,78.095294 164.344285,78.3055407 L163.769544,78.3664818 L163.224311,73.3253488 C161.865192,73.4689957 160.999777,74.246865 161.142472,75.5623217 C161.242446,76.4903672 161.707083,77.1137074 162.484415,77.2277542 L162.610373,78.3908582 C161.271953,78.3364466 160.254596,77.1833543 160.091642,75.6733215 C159.864829,73.5826072 161.341098,72.2919623 163.442756,72.0695274 L163.442756,72.0695274 Z" id="Fill-22" fill="#FFFFFF"></path>
                    <path d="M164.269899,85.1228014 C165.820598,85.0975544 166.93793,84.4951083 166.914148,83.0460165 C166.890365,81.5973601 165.739562,81.0314786 164.203396,81.0558551 C162.653137,81.0806668 161.549459,81.6970423 161.573241,83.1322046 C161.597023,84.5804258 162.71964,85.1480484 164.269899,85.1228014 M164.184018,79.871857 C166.255728,79.8383394 167.934588,80.8290672 167.970702,83.0290401 C168.006816,85.2303189 166.360987,86.2737172 164.289277,86.3067995 C162.231661,86.3398818 160.552801,85.377448 160.516687,83.1491811 C160.479692,80.9204788 162.112308,79.9049393 164.184018,79.871857" id="Fill-24" fill="#FFFFFF"></path>
                    <path d="M164.322793,92.4649824 C165.412378,92.6094998 166.124088,93.3368751 165.959373,94.551779 C165.799943,95.7257653 164.913829,96.2829409 163.823803,96.1379882 C162.691938,95.9882472 161.985513,95.2195191 162.144943,94.045968 C162.310098,92.8310641 163.190927,92.3148062 164.322793,92.4649824" id="Fill-26" fill="#FFFFFF"></path>
                    <polygon id="Fill-28" fill="#FFFFFF" points="168.18329 103.645319 168.318057 103.687543 167.956036 104.815823 159.809249 104.223824 159.792513 104.27693 166.714067 108.692982 166.331347 109.887862 158.091192 109.587945 158.074016 109.641051 165.084974 113.778079 164.71943 114.919854 164.584663 114.878066 156.055596 109.666733 156.429948 108.49797 164.615933 108.737382 164.632668 108.684276 157.812409 104.182907 158.182798 103.028073"></polygon>
                    <path d="M155.503316,117.795751 L156.065725,118.053444 L156.813109,116.461141 C157.304611,115.411649 157.150466,114.680791 156.383264,114.329074 C155.73101,114.030463 155.043523,114.237662 154.60487,115.173108 C154.089145,116.272659 154.557306,117.362198 155.503316,117.795751 M156.874326,113.249111 C157.973601,113.752745 158.558472,114.957202 157.669715,116.85334 L156.922772,118.446079 L157.34513,118.638914 C158.073575,118.973219 158.90772,118.817819 159.400104,117.768762 C159.844482,116.820693 159.526503,116.106812 158.906399,115.80733 L159.38601,114.78352 C160.63943,115.357672 160.984275,116.774987 160.32057,118.190562 C159.54456,119.846418 158.125104,120.255594 156.884456,119.687536 L152.484715,117.672127 L152.906192,116.774552 L153.861891,117.12061 L153.886114,117.070116 C153.404741,116.373647 153.37171,115.483472 153.798472,114.573273 C154.456451,113.170323 155.735855,112.727629 156.874326,113.249111" id="Fill-30" fill="#FFFFFF"></path>
                    <path d="M152.819518,121.023059 L156.526927,123.116385 L157.121487,122.087787 L157.989984,122.578363 L157.381772,123.630467 L159.05843,124.57723 L158.485451,125.568828 L156.809233,124.622501 L155.93501,126.134275 L155.066513,125.643699 L155.940295,124.13236 L152.317886,122.087352 C151.718482,121.748694 151.314181,121.857952 150.993119,122.414257 L150.573404,123.139891 L149.667912,122.628421 L150.199492,121.709517 C150.905036,120.488084 151.779259,120.435849 152.819518,121.023059" id="Fill-32" fill="#FFFFFF"></path>
                    <path d="M152.010961,125.695629 C153.856298,126.952322 154.454821,128.696542 153.239277,130.439457 C152.143526,132.011302 150.676065,132.12796 149.424407,131.394491 L150.096039,130.430751 C150.925339,130.91088 151.777101,130.695845 152.368578,129.847023 C153.208448,128.642566 152.550028,127.500356 151.331402,126.670251 C150.089433,125.824912 148.798137,125.639041 147.958707,126.843498 C147.350935,127.715391 147.443422,128.539401 148.177153,129.157518 L147.505521,130.120822 C146.331376,129.152294 146.02837,127.795485 147.091531,126.269781 C148.315443,124.515114 150.142723,124.422832 152.010961,125.695629" id="Fill-34" fill="#FFFFFF"></path>
                    <path d="M152.339554,136.861079 L151.571472,137.75169 L148.256912,134.958412 L148.220798,135.000635 C148.531731,135.75674 148.471394,136.621233 147.748674,137.458737 C146.715021,138.656665 145.331679,138.735888 144.076497,137.678125 L140.515306,134.676777 L141.283829,133.786602 L144.705409,136.670421 C145.563337,137.393443 146.413777,137.396055 147.154554,136.537221 C147.913389,135.657058 147.742508,134.524424 146.637948,133.592897 L143.634321,131.062101 L144.402845,130.17149 L152.339554,136.861079 Z" id="Fill-36" fill="#FFFFFF"></path>
                    <path d="M134.662769,144.896596 C135.668236,146.063617 136.850308,146.532428 137.965878,145.593065 C139.082329,144.653267 138.792536,143.415292 137.796319,142.258718 C136.790852,141.092131 135.607899,140.642473 134.502018,141.572695 C133.386448,142.512059 133.657303,143.729574 134.662769,144.896596 M138.708858,141.491295 C140.052122,143.050516 140.347199,144.961019 138.651604,146.388782 C136.956008,147.815673 135.093935,147.223674 133.750671,145.664453 C132.415775,144.115679 132.099557,142.222588 133.816733,140.777414 C135.53435,139.33224 137.365593,139.931639 138.708858,141.491295" id="Fill-38" fill="#FFFFFF"></path>
                    <path d="M131.521777,146.01839 L134.164264,149.817631 L133.188746,150.480148 L130.650197,146.830213 C130.011155,145.912179 129.214446,145.67625 128.27372,146.315696 C127.286751,146.986048 127.185016,148.069493 128.00771,149.25175 L130.250741,152.476839 L129.275223,153.139355 L125.195663,147.274647 L126.043902,146.698319 L126.771466,147.572823 L126.81771,147.541482 C126.716415,146.731401 127.024705,145.896508 127.942088,145.273168 C129.254523,144.381252 130.587658,144.67551 131.521777,146.01839" id="Fill-40" fill="#FFFFFF"></path>
                    <path d="M126.774858,154.603116 L125.879495,155.102833 L125.197293,154.107753 L125.148407,154.135611 C125.285376,154.970504 124.902215,155.744456 124.128847,156.175396 L123.564676,156.490549 L123.003588,155.508091 L123.49421,155.234292 C124.68465,154.570034 124.753355,153.444365 123.921412,151.988744 L122.203795,148.980867 L123.234365,148.405844 L126.774858,154.603116 Z" id="Fill-42" fill="#FFFFFF"></path>
                    <polygon id="Fill-44" fill="#FFFFFF" points="118.222889 158.846792 118.274417 158.976509 117.132863 159.419638 112.944961 154.865163 112.892111 154.885187 113.040091 161.00933 111.898977 161.452458 111.847008 161.322741 111.862863 153.818282 113.003536 153.375589"></polygon>
                    <path d="M110.924692,164.700313 L109.660262,165.091206 L109.247593,163.787938 L110.512023,163.39748 L110.924692,164.700313 Z M109.999381,162.008459 L108.869277,162.357999 L106.719614,155.563069 L107.849718,155.213528 L109.999381,162.008459 Z" id="Fill-46" fill="#FFFFFF"></path>
                    <g id="Group-50" transform="translate(98.652850, 156.270334)">
                        <mask id="mask-2" fill="white">
                            <use xlink:href="#path-1"></use>
                        </mask>
                        <g id="Clip-49"></g>
                        <path d="M2.05241969,4.49109622 C2.37127979,5.86227045 3.25298964,6.92003344 4.65350777,6.60226925 C6.10995855,6.27231685 6.38521762,4.96643662 6.06327461,3.58133299 C5.73912953,2.18317056 4.91511399,1.12671346 3.45910363,1.45666586 C2.05858549,1.77486535 1.73135751,3.10599259 2.05241969,4.49109622 M7.23125389,3.3166746 C7.69368912,5.36995361 7.06037306,7.12853898 5.08291192,7.57689119 C4.03868912,7.81369081 3.22788601,7.4972325 2.71480311,6.97052747 L2.66019171,6.98315098 L3.60576166,11.0557561 L2.45143523,11.3178027 L0.119440415,1.27123087 L1.12226425,1.04357242 L1.49705699,1.97335914 L1.55166839,1.96117092 C1.78112435,1.26600735 2.37172021,0.631784854 3.41506218,0.394985239 C5.2555544,-0.0224611399 6.6974715,1.07970177 7.23125389,3.3166746" id="Fill-48" fill="#FFFFFF" mask="url(#mask-2)"></path>
                    </g>
                    <path d="M92.5240415,162.599108 C92.6623316,163.719118 93.3731606,164.531811 94.646399,164.378588 C95.9896632,164.216658 96.4798446,163.244648 96.3860363,162.13378 L92.5240415,162.599108 Z M97.554456,161.361134 C97.8068135,163.407883 96.985,165.148622 94.7741192,165.415457 C92.7596632,165.65835 91.4996373,164.308941 91.2574093,162.344897 L91.1873834,161.778145 L96.2803368,161.163946 C96.1143005,159.822372 95.3145078,158.978773 93.9853368,159.138961 C93.0476943,159.252137 92.4240674,159.720513 92.3205699,160.490547 L91.1451036,160.632017 C91.1807772,159.308725 92.3320207,158.285786 93.8571762,158.101657 C95.9698446,157.84701 97.2981347,159.286961 97.554456,161.361134 L97.554456,161.361134 Z" id="Fill-51" fill="#FFFFFF"></path>
                    <path d="M84.3006658,162.351252 C84.3332565,163.883485 84.948956,164.985213 86.4146554,164.954742 C87.8799145,164.924271 88.4480492,163.783803 88.415899,162.265935 C88.3833083,160.733702 87.753956,159.645904 86.3023497,159.675939 C84.8366503,159.706409 84.2685155,160.819019 84.3006658,162.351252 M89.613386,162.241123 C89.656987,164.288308 88.6634119,165.953305 86.4366762,165.999446 C84.2103808,166.045587 83.1463394,164.423684 83.1031788,162.376064 C83.0600181,160.342373 84.0254067,158.678246 86.2798886,158.631235 C88.5348109,158.584658 89.5702254,160.193503 89.613386,162.241123" id="Fill-53" fill="#FFFFFF"></path>
                    <path d="M76.9323109,162.525979 C76.8019482,163.604636 76.0774663,164.318517 74.8465078,164.173564 C73.6569482,164.033835 73.0804456,163.166295 73.2103679,162.087638 C73.3451347,160.967628 74.1118964,160.258536 75.301456,160.398265 C76.5324145,160.543217 77.0670777,161.405969 76.9323109,162.525979" id="Fill-55" fill="#FFFFFF"></path>
                    <polygon id="Fill-57" fill="#FFFFFF" points="65.674215 166.505692 65.6336969 166.639327 64.4864171 166.298493 64.9638264 158.239906 64.9100959 158.2238 60.5460285 165.129295 59.3322461 164.768872 59.5123756 156.62192 59.4582047 156.605814 55.3777642 163.594885 54.217272 163.250568 54.2577902 163.117369 59.402272 154.611735 60.5896295 154.963888 60.4702772 163.056427 60.5240078 163.072098 64.9748368 156.26585 66.1489819 156.614085"></polygon>
                    <path d="M51.1702202,154.183972 L50.9178627,154.74376 L52.5399093,155.458512 C53.6087953,155.929499 54.3460492,155.765829 54.6904534,155.002324 C54.9828886,154.353302 54.7635622,153.676856 53.8105052,153.257233 C52.6905311,152.76361 51.5947798,153.241998 51.1702202,154.183972 M55.7906088,155.47157 C55.2969041,156.566333 54.0866451,157.16225 52.1554275,156.311251 L50.5333808,155.5965 L50.3440026,156.016558 C50.0167746,156.741757 50.1863342,157.564026 51.2547798,158.035013 C52.2206088,158.45986 52.938044,158.135566 53.2322409,157.517449 L54.2751425,157.977119 C53.7122927,159.224235 52.2835881,159.586399 50.841671,158.950871 C49.1548834,158.207825 48.7201943,156.810968 49.2764378,155.576476 L51.2508161,151.199166 L52.1651166,151.601377 L51.8290803,152.552057 L51.8801684,152.574693 C52.577785,152.088905 53.4784326,152.042764 54.4059456,152.451505 C55.8346503,153.080939 56.3014896,154.338937 55.7906088,155.47157" id="Fill-59" fill="#FFFFFF"></path>
                    <path d="M47.8735855,151.582441 L45.8106839,155.277212 L46.8593109,155.849187 L46.3766166,156.714986 L45.302886,156.129516 L44.3700881,157.800172 L43.358456,157.248656 L44.2908135,155.578 L42.7484819,154.737013 L43.232057,153.871214 L44.7743886,154.711766 L46.7897254,151.102313 C47.1231192,150.504655 47.0068497,150.107232 46.4395959,149.797738 L45.6992591,149.394657 L46.2030933,148.491858 L47.1407358,149.003328 C48.3866684,149.682821 48.4522902,150.545573 47.8735855,151.582441" id="Fill-61" fill="#FFFFFF"></path>
                    <path d="M43.1434016,150.858505 C41.899671,152.701537 40.1437383,153.319219 38.3618212,152.143926 C36.7547487,151.085293 36.6146969,149.635766 37.3378575,148.38778 L38.3235052,149.037237 C37.8496192,149.864295 38.0803964,150.703105 38.9484534,151.275081 C40.1798523,152.086468 41.3249301,151.418292 42.1463031,150.201212 C42.9835311,148.961496 43.1522098,147.682169 41.9208109,146.870782 C41.0294119,146.282701 40.1965881,146.387171 39.5826503,147.121076 L38.5978834,146.471618 C39.5597487,145.297196 40.928557,144.97682 42.4880648,146.005419 C44.2823135,147.187676 44.4025466,148.992837 43.1434016,150.858505" id="Fill-63" fill="#FFFFFF"></path>
                    <path d="M31.8401632,151.332452 L30.9285052,150.58636 L33.7044378,147.272035 L33.6617176,147.236341 C32.9011218,147.554541 32.0260181,147.507529 31.1689715,146.805836 C29.9419767,145.802485 29.842443,144.43697 30.8937124,143.181583 L33.8766399,139.620448 L34.7878575,140.366541 L31.9220803,143.788382 C31.2033238,144.646781 31.213013,145.486027 32.0920803,146.205567 C32.992728,146.942518 34.136044,146.757083 35.0613549,145.652309 L37.5770026,142.648784 L38.489101,143.394877 L31.8401632,151.332452 Z" id="Fill-65" fill="#FFFFFF"></path>
                    <path d="M23.4623782,133.995543 C22.2974819,135.005859 21.840772,136.180716 22.8070415,137.269385 C23.7737513,138.357618 25.021886,138.052913 26.1762124,137.051738 C27.3415492,136.041422 27.7788808,134.865695 26.8214197,133.787473 C25.8547098,132.698804 24.627715,132.984792 23.4623782,133.995543 M26.9663161,137.941478 C25.4098912,139.292193 23.4813161,139.611699 22.0129741,137.958019 C20.5446321,136.304339 21.1158497,134.456083 22.672715,133.105368 C24.2190104,131.764229 26.1286477,131.42383 27.615487,133.098403 C29.1027668,134.773412 28.5231813,136.591633 26.9663161,137.941478" id="Fill-67" fill="#FFFFFF"></path>
                    <path d="M22.271057,130.896646 L18.4645544,133.563253 L17.7801503,132.60909 L21.4364715,130.046953 C22.356057,129.401848 22.5837513,128.61092 21.9235699,127.69071 C21.2307979,126.724358 20.133285,126.639911 18.9490104,127.469581 L15.7181295,129.733542 L15.0328446,128.778943 L20.9084145,124.661938 L21.5038549,125.491607 L20.6291917,126.223771 L20.6622228,126.269041 C21.4800725,126.156736 22.3296321,126.449688 22.9735181,127.347699 C23.8944249,128.631814 23.6165233,129.9538 22.271057,130.896646" id="Fill-69" fill="#FFFFFF"></path>
                    <path d="M13.5178187,126.333726 L12.9994508,125.455304 L13.9961088,124.76754 L13.9674819,124.719223 C13.1249689,124.867223 12.3366269,124.4994 11.8896062,123.741554 L11.5628187,123.187861 L12.5484663,122.619367 L12.8320933,123.100367 C13.521342,124.267388 14.6620155,124.319188 16.1219896,123.476895 L19.1405907,121.735722 L19.7369119,122.746038 L13.5178187,126.333726 Z" id="Fill-71" fill="#FFFFFF"></path>
                    <polygon id="Fill-73" fill="#FFFFFF" points="9.10032902 117.944534 8.96996632 117.997204 8.50444819 116.876324 13.0490855 112.669648 13.0275052 112.618284 6.83571762 112.856389 6.3706399 111.734638 6.50056218 111.681968 14.0915466 111.584897 14.5570648 112.705778"></polygon>
                    <path d="M5.77916321,109.856303 L5.40965544,108.744564 L12.2497332,106.521956 L12.6196813,107.63326 L5.77916321,109.856303 Z M3.07017358,110.809596 L2.65618394,109.566398 L3.96861917,109.139811 L4.38216839,110.383444 L3.07017358,110.809596 Z" id="Fill-75" fill="#FFFFFF"></path>
                    <path d="M6.90041451,100.649717 C5.51795337,100.984458 4.46095855,101.871586 4.80272021,103.251901 C5.15857513,104.685322 6.48334197,104.938663 7.87989637,104.600005 C9.28966321,104.25917 10.3462176,103.429501 9.99124352,101.995209 C9.64860104,100.615329 8.2965285,100.31193 6.90041451,100.649717 M8.16484456,105.750485 C6.09445596,106.237579 4.30593264,105.637744 3.82323834,103.689371 C3.56823834,102.661208 3.8765285,101.855045 4.40150259,101.340528 L4.38873057,101.286552 L0.281865285,102.280762 L0,101.144211 L10.1299741,98.6917675 L10.3748446,99.6794483 L9.43984456,100.063377 L9.45305699,100.117789 C10.1594819,100.333694 10.8099741,100.907846 11.0645337,101.936009 C11.5141969,103.749006 10.4202073,105.190263 8.16484456,105.750485" id="Fill-77" fill="#FFFFFF"></path>
                    <path d="M4.92198446,92.6031445 C3.791,92.7563678 2.97975648,93.4711196 3.15327979,94.726941 C3.33737306,96.0519742 4.32742487,96.5225264 5.45048187,96.4123971 L4.92198446,92.6031445 Z M6.24939378,97.5554776 C4.1825285,97.8358066 2.40897927,97.0496667 2.10641451,94.8688467 C1.83027461,92.881297 3.17750259,91.6158991 5.1602487,91.347323 L5.73278756,91.2698408 L6.42996373,96.2939973 C7.78467876,96.1103035 8.62631088,95.3067519 8.44441969,93.9956481 C8.31625907,93.0706496 7.83268394,92.4612389 7.05226943,92.3702625 L6.89151813,91.2110762 C8.23081865,91.2263115 9.28296891,92.3489332 9.49172539,93.8537425 C9.78107772,95.937492 8.34400518,97.2716663 6.24939378,97.5554776 L6.24939378,97.5554776 Z" id="Fill-79" fill="#FFFFFF"></path>
                    <path d="M5.05657513,84.4702966 C3.50675648,84.524273 2.40131606,85.1484837 2.45328497,86.5962696 C2.50481347,88.0440555 3.66662694,88.5886075 5.2014715,88.5350664 C6.75129016,88.4815253 7.84219689,87.8438205 7.79154922,86.4095287 C7.74002073,84.9617428 6.60639378,84.4158849 5.05657513,84.4702966 M5.24419171,89.7186292 C3.17336269,89.7908879 1.47512435,88.8323718 1.39629016,86.6332695 C1.31789637,84.4332966 2.94346632,83.3589925 5.01429534,83.2867338 C7.07059067,83.2149104 8.7683886,84.1455677 8.84766321,86.3729641 C8.92737824,88.6003604 7.31458031,89.6463705 5.24419171,89.7186292" id="Fill-81" fill="#FFFFFF"></path>
                    <path d="M4.77145078,77.1863578 C3.67790155,77.0731816 2.9446114,76.3671356 3.07365285,75.1478788 C3.19829016,73.9704101 4.06722798,73.3879876 5.16121762,73.5007286 C6.29660622,73.6182578 7.02505181,74.3660918 6.90041451,75.5435605 C6.77137306,76.7623821 5.90683938,77.3038871 4.77145078,77.1863578" id="Fill-83" fill="#FFFFFF"></path>
                    <polygon id="Fill-85" fill="#FFFFFF" points="0.57892487 66.1186747 0.443277202 66.0808042 0.77138601 64.9416413 8.93314767 65.2968407 8.94856218 65.2432996 1.89752591 61.0300947 2.24501295 59.824332 10.4917746 59.8848378 10.5071891 59.8312967 3.37555699 55.898856 3.7067487 54.7466344 3.84239637 54.7849402 12.5238472 59.7464145 12.184728 60.925189 3.99389896 60.9243184 3.97848446 60.9778595 10.9308679 65.279429 10.5948316 66.4451447"></polygon>
                    <path d="M12.8313886,51.6086042 L12.2610518,51.3674517 L11.5625544,52.9810843 C11.1023212,54.0440708 11.2789275,54.7701402 12.0558187,55.0987868 C12.7168808,55.3778098 13.3973212,55.151022 13.8077876,54.2033882 C14.2904819,53.0890371 13.7897306,52.0138624 12.8313886,51.6086042 M11.5977876,56.1922438 C10.4830984,55.7212563 9.86299482,54.5346465 10.6944974,52.6136967 L11.3929948,51.0004993 L10.9657927,50.8194172 C10.2267772,50.5073119 9.3979171,50.6866528 8.93768394,51.7496393 C8.52193264,52.7098965 8.8606114,53.413766 9.49040415,53.6954008 L9.04162176,54.732705 C7.77190674,54.1955529 7.38390155,52.7895552 8.00488601,51.3552634 C8.73112953,49.6776426 10.1373731,49.2266787 11.3938756,49.7586072 L15.8508705,51.6434277 L15.4575803,52.5527556 L14.4917513,52.2349914 L14.4692902,52.286356 C14.9709223,52.9680255 15.0308187,53.8568947 14.6318031,54.7788461 C14.0161036,56.2005144 12.7503523,56.6802077 11.5977876,56.1922438" id="Fill-87" fill="#FFFFFF"></path>
                    <path d="M15.4123497,48.3169154 L11.6432824,46.3324128 L11.0799922,47.3775523 L10.1965207,46.9126589 L10.7734637,45.843143 L9.06905959,44.945568 L9.61253109,43.9374285 L11.3164948,44.8345682 L12.1449145,43.2979824 L13.028386,43.7633111 L12.1999663,45.2998968 L15.8813912,47.2382584 C16.4913653,47.5590696 16.8912617,47.4384933 17.1969093,46.8730472 L17.5941632,46.1352249 L18.5146295,46.6201417 L18.0107953,47.5547167 C17.3418057,48.7961735 16.469785,48.8736557 15.4123497,48.3169154" id="Fill-89" fill="#FFFFFF"></path>
                    <path d="M16.0781244,43.6285878 C14.1966736,42.4267427 13.5461813,40.7012396 14.7088756,38.9235013 C15.7566218,37.3211863 17.2201192,37.1614336 18.4920363,37.8583384 L17.8494715,38.8403603 C17.0065181,38.3850434 16.1618031,38.62489 15.5958705,39.4906886 C14.7934352,40.7186513 15.4857668,41.8408378 16.7281762,42.6343776 C17.9943679,43.4431528 19.2905078,43.5911525 20.092943,42.3627545 C20.6747306,41.4738854 20.5571399,40.652922 19.8057927,40.0565701 L20.4483575,39.0745481 C21.6498083,40.0078172 21.9942124,41.354615 20.9764145,42.9103537 C19.8066736,44.6998449 17.9833575,44.8456682 16.0781244,43.6285878" id="Fill-91" fill="#FFFFFF"></path>
                    <path d="M15.4312876,32.4570001 L16.173386,31.5446251 L19.5685415,34.2417031 L19.6037746,34.1981737 C19.2708212,33.4512102 19.305614,32.5854116 20.0032306,31.7274483 C21.0007694,30.5003562 22.3814689,30.3815211 23.6670389,31.4027195 L27.3149922,34.3000324 L26.5733342,35.2124074 L23.0685155,32.4282707 C22.1894482,31.7300601 21.3394482,31.7518248 20.624215,32.6315527 C19.8913653,33.5330454 20.0957176,34.6604553 21.2275829,35.5593362 L24.3038782,38.0035087 L23.5622202,38.9154484 L15.4312876,32.4570001 Z" id="Fill-93" fill="#FFFFFF"></path>
                    <path d="M32.8530285,23.927121 C31.8136503,22.7905699 30.6183653,22.3557118 29.5309819,23.3268514 C28.443158,24.2984263 28.7699456,25.5276949 29.7991943,26.6542342 C30.8385725,27.7907853 32.0351788,28.2060552 33.1119922,27.2440568 C34.1993756,26.2729172 33.8919663,25.0641074 32.8530285,23.927121 M28.9108782,27.4477741 C27.5218109,25.9286001 27.1699197,24.0272385 28.8223549,22.5520292 C30.4747902,21.0763845 32.3522772,21.6144072 33.741785,23.1335812 C35.1211632,24.6423081 35.4937539,26.5249521 33.8206192,28.0188791 C32.1474845,29.5132414 30.2995052,28.9673834 28.9108782,27.4477741" id="Fill-95" fill="#FFFFFF"></path>
                    <path d="M35.967772,22.7070807 L33.2143005,18.9848867 L34.17,18.2940761 L36.8155699,21.8700114 C37.4810363,22.7697629 38.2847927,22.9826214 39.2065803,22.3166225 C40.1732902,21.6179766 40.2428756,20.5319195 39.3862694,19.3736037 L37.0481088,16.2138089 L38.0038083,15.5229983 L42.2551295,21.2693065 L41.4249482,21.8695762 L40.671399,21.0164011 L40.6255959,21.0490481 C40.751114,21.8560821 40.467487,22.6996807 39.568601,23.3491385 C38.2830311,24.2784899 36.9415285,24.0225374 35.967772,22.7070807" id="Fill-97" fill="#FFFFFF"></path>
                    <path d="M40.4510596,13.9935949 L41.3318886,13.4677604 L42.0422772,14.4428177 L42.0907228,14.4140883 C41.9286503,13.5835485 42.2893497,12.7987145 43.0490648,12.3451387 L43.603987,12.0143157 L44.1941425,12.9797965 L43.7114482,13.2679607 C42.5412668,13.9661714 42.5060337,15.0935813 43.3798161,16.5243907 L45.1868368,19.4813389 L44.173443,20.0859614 L40.4510596,13.9935949 Z" id="Fill-99" fill="#FFFFFF"></path>
                    <polygon id="Fill-101" fill="#FFFFFF" points="48.8757047 9.5018457 48.819772 9.37386944 49.9476736 8.89722316 54.2707824 13.325463 54.3227513 13.3036983 53.9893575 7.18739065 55.1168187 6.71074437 55.1723109 6.83872063 55.3845907 14.3392614 54.2571295 14.8159076"></polygon>
                    <path d="M57.0048756,6.10368418 L58.1235285,5.72236715 L60.4726995,12.4493915 L59.3536062,12.8307085 L57.0048756,6.10368418 Z M56.0007306,3.4409944 L57.2523886,3.01397156 L57.7029326,4.30374593 L56.4508342,4.73120406 L56.0007306,3.4409944 Z" id="Fill-103" fill="#FFFFFF"></path>
                    <path d="M66.3365544,7.07438848 C65.978057,5.71322599 65.0646373,4.68201591 63.6742487,5.04026238 C62.2288083,5.41287354 61.9927461,6.72571846 62.3552073,8.10037505 C62.7211917,9.48852573 63.5760363,10.5206064 65.0214767,10.1479952 C66.4123057,9.78974876 66.699456,8.44904507 66.3365544,7.07438848 M61.1960363,8.39898632 C60.6732642,6.36050729 61.2528497,4.58451018 63.216658,4.07869924 C64.2529534,3.81186438 65.0725648,4.10438155 65.6006218,4.61585131 L65.6552332,4.60148662 L64.5885492,0.558916737 L65.7345078,0.263787806 L68.3646632,10.2363598 L67.3697668,10.4927476 L66.967228,9.57471382 L66.9126166,9.58864321 C66.7043005,10.2899009 66.1335233,10.9406645 65.097228,11.2079347 C63.2699482,11.6789222 61.7963212,10.619418 61.1960363,8.39898632" id="Fill-105" fill="#FFFFFF"></path>
                    <path d="M74.4463912,5.00247891 C74.2746295,3.8872572 73.5400181,3.09589378 72.2725052,3.2865523 C70.9349663,3.48722256 70.4734119,4.47229154 70.6015725,5.58011327 L74.4463912,5.00247891 Z M69.4564948,6.38584137 C69.1433601,4.34823292 69.9123238,2.58442403 72.1135155,2.25403633 C74.1196036,1.952378 75.4192668,3.26478763 75.7196295,5.22012562 L75.8063912,5.78426588 L70.7354585,6.54602934 C70.9411321,7.88150952 71.7651477,8.7016023 73.0890337,8.50267321 C74.022272,8.36250874 74.6313653,7.87672129 74.7124016,7.10407549 L75.8825934,6.92821695 C75.8865466,8.25150892 74.7661321,9.30753073 73.2471425,9.53562447 C71.1441632,9.85164749 69.7740337,8.45130859 69.4564948,6.38584137 L69.4564948,6.38584137 Z" id="Fill-107" fill="#FFFFFF"></path>
                    <path d="M82.6775181,5.01140243 C82.6000052,3.4809108 81.9525959,2.39703021 80.4882176,2.46928892 C79.0242798,2.54198292 78.490057,3.69812221 78.5666891,5.21511974 C78.6446425,6.74561137 79.3057047,7.81512727 80.7559896,7.74330386 C82.2199275,7.67060986 82.7554715,6.54232935 82.6775181,5.01140243 M77.3700829,5.27431965 C77.2661451,3.22887592 78.2103938,1.53601985 80.4349275,1.42589062 C82.6599016,1.31576139 83.7706269,2.9067588 83.8745648,4.95220252 C83.9771813,6.98371686 83.0611192,8.67526705 80.808399,8.78670216 C78.5561192,8.89857257 77.4740207,7.31976338 77.3700829,5.27431965" id="Fill-109" fill="#FFFFFF"></path>
                    <path d="M90.0381218,4.62586306 C90.1363342,3.54372364 90.8396762,2.80851307 92.0750389,2.91777172 C93.2681218,3.02354802 93.8706088,3.87367605 93.7723964,4.95625075 C93.6706606,6.08017833 92.9254793,6.81147126 91.731956,6.70569496 C90.4965933,6.59643632 89.9368264,5.74979064 90.0381218,4.62586306" id="Fill-111" fill="#FFFFFF"></path>
                </g>
            </g>
        </g>
    </g>
</svg>